<svg xmlns="http://www.w3.org/2000/svg" viewBox="0 0 24 24" fill="black">
  <path d="M12 2C6.47 2 2 6.47 2 12s4.47 10 10 10c1.1 0 2-.9 2-2 0-.49-.18-.94-.48-1.3-.28-.35-.45-.8-.45-1.26 0-1.1.9-2 2-2h2.93c2.65 0 4.81-2.16 4.81-4.81C21.81 5.99 17.41 2 12 2zM6.5 13c-.83 0-1.5-.67-1.5-1.5S5.67 10 6.5 10c.83 0 1.5.67 1.5 1.5S7.33 13 6.5 13zm3-4C8.67 9 8 8.33 8 7.5S8.67 6 9.5 6s1.5.67 1.5 1.5S10.33 9 9.5 9zm5 0c-.83 0-1.5-.67-1.5-1.5S13.67 6 14.5 6s1.5.67 1.5 1.5S15.33 9 14.5 9zm3 4c-.83 0-1.5-.67-1.5-1.5S16.67 10 17.5 10c.83 0 1.5.67 1.5 1.5s-.67 1.5-1.5 1.5z"/>
</svg>
